<svg width="8" height="20" viewBox="0 0 8 20" fill="none" xmlns="http://www.w3.org/2000/svg">
<path d="M3.64645 9.35355C3.84171 9.54882 4.15829 9.54882 4.35355 9.35355L7.53553 6.17157C7.7308 5.97631 7.7308 5.65973 7.53553 5.46447C7.34027 5.2692 7.02369 5.2692 6.82843 5.46447L4 8.29289L1.17157 5.46447C0.976311 5.2692 0.659728 5.2692 0.464466 5.46447C0.269204 5.65973 0.269204 5.97631 0.464466 6.17157L3.64645 9.35355ZM3.5 0L3.5 9H4.5L4.5 0L3.5 0Z" fill="black"/>
<path d="M4.35355 10.6464C4.15829 10.4512 3.84171 10.4512 3.64645 10.6464L0.464466 13.8284C0.269204 14.0237 0.269204 14.3403 0.464466 14.5355C0.659728 14.7308 0.976311 14.7308 1.17157 14.5355L4 11.7071L6.82843 14.5355C7.02369 14.7308 7.34027 14.7308 7.53553 14.5355C7.7308 14.3403 7.7308 14.0237 7.53553 13.8284L4.35355 10.6464ZM4.5 20L4.5 11H3.5L3.5 20H4.5Z" fill="black"/>
</svg>
