<svg width="8" height="22" viewBox="0 0 8 22" fill="none" xmlns="http://www.w3.org/2000/svg">
<path d="M3.64645 21.3536C3.84171 21.5488 4.15829 21.5488 4.35355 21.3536L7.53553 18.1716C7.7308 17.9763 7.7308 17.6597 7.53553 17.4645C7.34027 17.2692 7.02369 17.2692 6.82843 17.4645L4 20.2929L1.17157 17.4645C0.976311 17.2692 0.659728 17.2692 0.464466 17.4645C0.269204 17.6597 0.269204 17.9763 0.464466 18.1716L3.64645 21.3536ZM4.35355 0.646446C4.15829 0.451183 3.84171 0.451183 3.64645 0.646446L0.464466 3.82843C0.269204 4.02369 0.269204 4.34027 0.464466 4.53553C0.659728 4.73079 0.976311 4.73079 1.17157 4.53553L4 1.70711L6.82843 4.53553C7.02369 4.73079 7.34027 4.73079 7.53553 4.53553C7.7308 4.34027 7.7308 4.02369 7.53553 3.82843L4.35355 0.646446ZM4.5 21L4.5 1H3.5L3.5 21H4.5Z" fill="black"/>
</svg>
